var fontJSON=
{"glyphs":{" ":{"ha":694,"x_min":0,"x_max":0,"o":""},"A":{"ha":1476,"x_min":174,"x_max":1215,"o":"m 434 87 l 434 174 l 955 174 l 955 87 l 434 87 m 347 174 l 347 260 l 434 260 l 434 174 l 347 174 m 955 174 l 955 260 l 1042 260 l 1042 174 l 955 174 m 260 260 l 260 434 l 347 434 l 347 260 l 260 260 m 1042 260 l 1042 434 l 1128 434 l 1128 260 l 1042 260 m 174 434 l 174 868 l 260 868 l 260 434 l 174 434 m 260 868 l 260 955 l 434 955 l 434 868 l 260 868 m 1128 434 l 1128 781 l 1042 781 l 1042 868 l 955 868 l 955 955 l 1128 955 l 1128 868 l 1215 868 l 1215 434 l 1128 434 m 608 868 l 608 955 l 434 955 l 434 1042 l 694 1042 l 694 1128 l 781 1128 l 781 1042 l 955 1042 l 955 955 l 694 955 l 694 868 l 608 868 m 781 1128 l 781 1302 l 868 1302 l 868 1128 l 781 1128 z "},"B":{"ha":1476,"x_min":0,"x_max":1389,"o":"m 434 434 l 434 521 l 694 521 l 694 434 l 434 434 m 347 521 l 347 608 l 434 608 l 434 521 l 347 521 m 694 521 l 694 608 l 868 608 l 868 521 l 694 521 m 260 608 l 260 694 l 347 694 l 347 608 l 260 608 m 868 608 l 868 694 l 1042 694 l 1042 608 l 868 608 m 521 694 l 521 781 l 608 781 l 608 694 l 521 694 m 434 781 l 434 868 l 521 868 l 521 781 l 434 781 m 868 781 l 868 868 l 955 868 l 955 781 l 868 781 m 1302 781 l 1302 868 l 1389 868 l 1389 781 l 1302 781 m 434 87 l 434 174 l 347 174 l 347 260 l 260 260 l 260 347 l 174 347 l 174 434 l 87 434 l 87 521 l 0 521 l 0 955 l 174 955 l 174 868 l 87 868 l 87 781 l 260 781 l 260 694 l 174 694 l 174 521 l 260 521 l 260 434 l 347 434 l 347 347 l 434 347 l 434 260 l 694 260 l 694 347 l 868 347 l 868 434 l 1042 434 l 1042 521 l 1215 521 l 1215 694 l 1042 694 l 1042 781 l 1302 781 l 1302 608 l 1389 608 l 1389 434 l 1215 434 l 1215 347 l 1042 347 l 1042 260 l 868 260 l 868 174 l 694 174 l 694 87 l 434 87 m 781 868 l 781 955 l 868 955 l 868 868 l 781 868 m 1215 868 l 1215 955 l 1302 955 l 1302 868 l 1215 868 m 174 955 l 174 1042 l 347 1042 l 347 955 l 174 955 m 694 955 l 694 1042 l 781 1042 l 781 955 l 694 955 m 1128 955 l 1128 1042 l 1215 1042 l 1215 955 l 1128 955 m 347 1042 l 347 1128 l 521 1128 l 521 1042 l 347 1042 m 1042 1042 l 1042 1128 l 1128 1128 l 1128 1042 l 1042 1042 m 521 1128 l 521 1215 l 694 1215 l 694 1128 l 521 1128 m 955 1128 l 955 1215 l 1042 1215 l 1042 1128 l 955 1128 m 694 1215 l 694 1302 l 955 1302 l 955 1215 l 694 1215 z "},"C":{"ha":1476,"x_min":174,"x_max":1302,"o":"m 434 87 l 434 174 l 781 174 l 781 87 l 434 87 m 347 174 l 347 260 l 434 260 l 434 174 l 347 174 m 781 174 l 781 260 l 1128 260 l 1128 174 l 781 174 m 260 260 l 260 347 l 347 347 l 347 260 l 260 260 m 1128 260 l 1128 347 l 1215 347 l 1215 260 l 1128 260 m 1215 347 l 1215 608 l 1302 608 l 1302 347 l 1215 347 m 174 347 l 174 781 l 260 781 l 260 347 l 174 347 m 1128 608 l 1128 781 l 1215 781 l 1215 608 l 1128 608 m 1042 781 l 1042 868 l 1128 868 l 1128 781 l 1042 781 m 955 868 l 955 955 l 1042 955 l 1042 868 l 955 868 m 260 781 l 260 1042 l 347 1042 l 347 781 l 260 781 m 868 955 l 868 1042 l 955 1042 l 955 955 l 868 955 m 347 1042 l 347 1128 l 434 1128 l 434 1042 l 347 1042 m 781 1042 l 781 1128 l 868 1128 l 868 1042 l 781 1042 m 434 1128 l 434 1215 l 781 1215 l 781 1128 l 434 1128 z "},"D":{"ha":1476,"x_min":174,"x_max":1215,"o":"m 260 260 l 260 434 l 347 434 l 347 260 l 260 260 m 434 87 l 434 174 l 347 174 l 347 260 l 434 260 l 434 434 l 521 434 l 521 174 l 868 174 l 868 434 l 955 434 l 955 260 l 1042 260 l 1042 174 l 955 174 l 955 87 l 434 87 m 1042 260 l 1042 434 l 1128 434 l 1128 260 l 1042 260 m 521 434 l 521 521 l 868 521 l 868 434 l 521 434 m 174 434 l 174 781 l 260 781 l 260 608 l 434 608 l 434 781 l 521 781 l 521 521 l 260 521 l 260 434 l 174 434 m 1128 434 l 1128 521 l 868 521 l 868 781 l 955 781 l 955 608 l 1128 608 l 1128 781 l 1215 781 l 1215 434 l 1128 434 m 260 781 l 260 955 l 347 955 l 347 868 l 434 868 l 434 781 l 260 781 m 521 781 l 521 868 l 694 868 l 694 955 l 781 955 l 781 868 l 868 868 l 868 781 l 521 781 m 1042 781 l 1042 955 l 1128 955 l 1128 781 l 1042 781 m 347 955 l 347 1042 l 434 1042 l 434 955 l 347 955 m 781 955 l 781 1042 l 868 1042 l 868 955 l 781 955 m 955 955 l 955 1042 l 1042 1042 l 1042 955 l 955 955 m 434 1042 l 434 1128 l 521 1128 l 521 1042 l 434 1042 m 868 1042 l 868 1128 l 955 1128 l 955 1042 l 868 1042 m 521 1128 l 521 1215 l 868 1215 l 868 1128 l 521 1128 z "},"E":{"ha":1476,"x_min":260,"x_max":1128,"o":"m 868 260 l 868 347 l 955 347 l 955 260 l 868 260 m 434 260 l 434 347 l 347 347 l 347 434 l 521 434 l 521 260 l 434 260 m 521 174 l 521 260 l 694 260 l 694 347 l 608 347 l 608 434 l 781 434 l 781 260 l 868 260 l 868 174 l 521 174 m 955 347 l 955 434 l 1042 434 l 1042 347 l 955 347 m 781 434 l 781 868 l 868 868 l 868 434 l 781 434 m 260 434 l 260 955 l 347 955 l 347 868 l 608 868 l 608 434 l 521 434 l 521 781 l 347 781 l 347 434 l 260 434 m 1042 434 l 1042 955 l 1128 955 l 1128 434 l 1042 434 m 347 955 l 347 1042 l 434 1042 l 434 955 l 347 955 m 955 955 l 955 1042 l 1042 1042 l 1042 955 l 955 955 m 434 1042 l 434 1128 l 521 1128 l 521 1042 l 434 1042 m 868 1042 l 868 1128 l 955 1128 l 955 1042 l 868 1042 m 608 868 l 608 955 l 694 955 l 694 1128 l 521 1128 l 521 1215 l 868 1215 l 868 1128 l 781 1128 l 781 868 l 608 868 z "},"F":{"ha":1476,"x_min":174,"x_max":1302,"o":"m 174 87 l 174 260 l 260 260 l 260 174 l 347 174 l 347 87 l 174 87 m 347 174 l 347 260 l 434 260 l 434 174 l 347 174 m 521 174 l 521 260 l 694 260 l 694 174 l 521 174 m 868 87 l 868 260 l 955 260 l 955 174 l 1042 174 l 1042 87 l 868 87 m 260 260 l 260 347 l 347 347 l 347 260 l 260 260 m 1042 174 l 1042 347 l 1128 347 l 1128 174 l 1042 174 m 694 260 l 694 434 l 781 434 l 781 260 l 694 260 m 1128 347 l 1128 521 l 1215 521 l 1215 347 l 1128 347 m 694 521 l 694 608 l 781 608 l 781 521 l 694 521 m 781 608 l 781 694 l 868 694 l 868 608 l 781 608 m 868 694 l 868 781 l 955 781 l 955 694 l 868 694 m 955 781 l 955 868 l 1042 868 l 1042 781 l 955 781 m 1042 868 l 1042 955 l 1128 955 l 1128 868 l 1042 868 m 434 260 l 434 347 l 347 347 l 347 434 l 434 434 l 434 608 l 521 608 l 521 694 l 608 694 l 608 781 l 694 781 l 694 868 l 781 868 l 781 955 l 868 955 l 868 1042 l 955 1042 l 955 1128 l 1042 1128 l 1042 1215 l 1128 1215 l 1128 1302 l 1302 1302 l 1302 521 l 1215 521 l 1215 955 l 1128 955 l 1128 1042 l 1215 1042 l 1215 1128 l 1128 1128 l 1128 1042 l 1042 1042 l 1042 955 l 955 955 l 955 868 l 868 868 l 868 781 l 781 781 l 781 694 l 694 694 l 694 608 l 608 608 l 608 521 l 694 521 l 694 434 l 521 434 l 521 260 l 434 260 z "},"G":{"ha":1476,"x_min":434,"x_max":955,"o":"m 608 347 l 608 434 l 781 434 l 781 347 l 608 347 m 521 434 l 521 521 l 608 521 l 608 434 l 521 434 m 781 434 l 781 521 l 868 521 l 868 434 l 781 434 m 434 521 l 434 781 l 521 781 l 521 521 l 434 521 m 868 521 l 868 781 l 955 781 l 955 521 l 868 521 m 521 781 l 521 955 l 608 955 l 608 781 l 521 781 m 781 781 l 781 955 l 868 955 l 868 781 l 781 781 m 608 955 l 608 1042 l 781 1042 l 781 955 l 608 955 z "},"H":{"ha":1476,"x_min":260,"x_max":1128,"o":"m 347 347 l 347 434 l 434 434 l 434 694 l 521 694 l 521 781 l 868 781 l 868 694 l 955 694 l 955 434 l 1042 434 l 1042 347 l 868 347 l 868 434 l 521 434 l 521 347 l 347 347 m 260 434 l 260 955 l 347 955 l 347 434 l 260 434 m 1042 434 l 1042 955 l 1128 955 l 1128 434 l 1042 434 m 347 955 l 347 1042 l 434 1042 l 434 955 l 347 955 m 955 955 l 955 1042 l 1042 1042 l 1042 955 l 955 955 m 434 1042 l 434 1128 l 955 1128 l 955 1042 l 434 1042 z "},"I":{"ha":1476,"x_min":0,"x_max":1389,"o":"m 174 260 l 174 347 l 260 347 l 260 260 l 174 260 m 608 260 l 608 347 l 868 347 l 868 260 l 608 260 m 87 347 l 87 434 l 174 434 l 174 347 l 87 347 m 868 347 l 868 434 l 1128 434 l 1128 347 l 868 347 m 1128 434 l 1128 521 l 1302 521 l 1302 434 l 1128 434 m 260 174 l 260 260 l 347 260 l 347 608 l 521 608 l 521 521 l 434 521 l 434 260 l 608 260 l 608 174 l 260 174 m 260 608 l 260 694 l 347 694 l 347 608 l 260 608 m 521 608 l 521 694 l 781 694 l 781 608 l 521 608 m 174 694 l 174 781 l 260 781 l 260 694 l 174 694 m 781 694 l 781 781 l 1042 781 l 1042 694 l 781 694 m 1042 781 l 1042 868 l 1215 868 l 1215 781 l 1042 781 m 1302 521 l 1302 868 l 1389 868 l 1389 521 l 1302 521 m 0 434 l 0 868 l 87 868 l 87 955 l 347 955 l 347 868 l 174 868 l 174 781 l 87 781 l 87 434 l 0 434 m 1215 868 l 1215 955 l 1302 955 l 1302 868 l 1215 868 m 347 955 l 347 1042 l 608 1042 l 608 955 l 347 955 m 1128 955 l 1128 1042 l 1215 1042 l 1215 955 l 1128 955 m 608 1042 l 608 1128 l 868 1128 l 868 1042 l 608 1042 m 1042 1042 l 1042 1128 l 1128 1128 l 1128 1042 l 1042 1042 m 868 1128 l 868 1215 l 1042 1215 l 1042 1128 l 868 1128 z "},"J":{"ha":1476,"x_min":0,"x_max":1389,"o":"m 608 174 l 608 260 l 694 260 l 694 174 l 608 174 m 781 174 l 781 260 l 955 260 l 955 174 l 781 174 m 260 260 l 260 347 l 347 347 l 347 260 l 260 260 m 347 174 l 347 260 l 434 260 l 434 347 l 521 347 l 521 174 l 347 174 m 694 260 l 694 347 l 781 347 l 781 260 l 694 260 m 174 347 l 174 521 l 260 521 l 260 608 l 347 608 l 347 521 l 434 521 l 434 608 l 521 608 l 521 434 l 260 434 l 260 347 l 174 347 m 608 434 l 608 521 l 694 521 l 694 608 l 781 608 l 781 434 l 608 434 m 868 434 l 868 521 l 955 521 l 955 608 l 1042 608 l 1042 434 l 868 434 m 1128 434 l 1128 608 l 1215 608 l 1215 434 l 1128 434 m 347 694 l 347 781 l 521 781 l 521 694 l 347 694 m 868 694 l 868 781 l 955 781 l 955 694 l 868 694 m 1128 694 l 1128 781 l 1215 781 l 1215 694 l 1128 694 m 521 781 l 521 955 l 608 955 l 608 781 l 521 781 m 260 781 l 260 1042 l 347 1042 l 347 781 l 260 781 m 1042 781 l 1042 1042 l 1128 1042 l 1128 781 l 1042 781 m 521 1042 l 521 1128 l 608 1128 l 608 1042 l 521 1042 m 347 1042 l 347 1215 l 521 1215 l 521 1128 l 434 1128 l 434 1042 l 347 1042 m 781 781 l 781 1128 l 868 1128 l 868 1215 l 955 1215 l 955 1128 l 1042 1128 l 1042 1042 l 868 1042 l 868 781 l 781 781 m 1302 87 l 1302 174 l 1042 174 l 1042 347 l 1128 347 l 1128 260 l 1302 260 l 1302 1302 l 87 1302 l 87 87 l 1302 87 m 0 0 l 0 1389 l 1389 1389 l 1389 0 l 0 0 z "},"K":{"ha":1476,"x_min":87,"x_max":1302,"o":"m 521 174 l 521 260 l 608 260 l 608 174 l 521 174 m 608 260 l 608 434 l 694 434 l 694 260 l 608 260 m 260 347 l 260 521 l 347 521 l 347 347 l 260 347 m 694 434 l 694 521 l 781 521 l 781 434 l 694 434 m 174 87 l 174 174 l 87 174 l 87 608 l 174 608 l 174 347 l 260 347 l 260 174 l 521 174 l 521 87 l 174 87 m 347 521 l 347 608 l 434 608 l 434 521 l 347 521 m 781 521 l 781 608 l 868 608 l 868 521 l 781 521 m 434 608 l 434 694 l 521 694 l 521 608 l 434 608 m 868 608 l 868 694 l 955 694 l 955 608 l 868 608 m 174 608 l 174 781 l 260 781 l 260 608 l 174 608 m 521 694 l 521 781 l 608 781 l 608 694 l 521 694 m 955 694 l 955 781 l 1128 781 l 1128 694 l 955 694 m 260 781 l 260 868 l 347 868 l 347 781 l 260 781 m 608 781 l 608 868 l 781 868 l 781 781 l 608 781 m 1128 781 l 1128 868 l 1215 868 l 1215 781 l 1128 781 m 347 868 l 347 955 l 434 955 l 434 868 l 347 868 m 781 868 l 781 955 l 1042 955 l 1042 868 l 781 868 m 434 955 l 434 1042 l 694 1042 l 694 955 l 434 955 m 1042 955 l 1042 1042 l 1128 1042 l 1128 955 l 1042 955 m 694 1042 l 694 1128 l 955 1128 l 955 1042 l 694 1042 m 1215 868 l 1215 1042 l 1128 1042 l 1128 1128 l 955 1128 l 955 1215 l 1128 1215 l 1128 1302 l 1302 1302 l 1302 868 l 1215 868 z "},"L":{"ha":1476,"x_min":174,"x_max":1215,"o":"m 260 174 l 260 260 l 608 260 l 608 174 l 260 174 m 608 260 l 608 347 l 868 347 l 868 260 l 608 260 m 347 347 l 347 434 l 521 434 l 521 347 l 347 347 m 868 347 l 868 434 l 955 434 l 955 347 l 868 347 m 521 434 l 521 521 l 608 521 l 608 434 l 521 434 m 955 434 l 955 521 l 1042 521 l 1042 434 l 955 434 m 174 260 l 174 608 l 260 608 l 260 521 l 347 521 l 347 434 l 260 434 l 260 260 l 174 260 m 608 521 l 608 608 l 694 608 l 694 521 l 608 521 m 260 608 l 260 694 l 347 694 l 347 608 l 260 608 m 694 608 l 694 694 l 781 694 l 781 608 l 694 608 m 1042 521 l 1042 694 l 1128 694 l 1128 521 l 1042 521 m 781 694 l 781 781 l 868 781 l 868 694 l 781 694 m 347 694 l 347 955 l 434 955 l 434 694 l 347 694 m 868 781 l 868 955 l 955 955 l 955 781 l 868 781 m 434 955 l 434 1042 l 521 1042 l 521 955 l 434 955 m 955 955 l 955 1042 l 1042 1042 l 1042 955 l 955 955 m 1128 694 l 1128 1042 l 1215 1042 l 1215 694 l 1128 694 m 521 1042 l 521 1128 l 608 1128 l 608 1042 l 521 1042 m 1042 1042 l 1042 1128 l 1128 1128 l 1128 1042 l 1042 1042 m 608 1128 l 608 1215 l 1042 1215 l 1042 1128 l 608 1128 z "},"M":{"ha":1476,"x_min":87,"x_max":1302,"o":"m 347 174 l 347 260 l 434 260 l 434 174 l 347 174 m 260 260 l 260 347 l 347 347 l 347 260 l 260 260 m 174 347 l 174 434 l 260 434 l 260 347 l 174 347 m 868 260 l 868 347 l 1042 347 l 1042 434 l 1215 434 l 1215 260 l 868 260 m 434 87 l 434 174 l 521 174 l 521 521 l 608 521 l 608 174 l 694 174 l 694 260 l 868 260 l 868 87 l 434 87 m 434 521 l 434 608 l 521 608 l 521 521 l 434 521 m 608 521 l 608 608 l 781 608 l 781 521 l 608 521 m 781 608 l 781 694 l 955 694 l 955 608 l 781 608 m 955 694 l 955 781 l 1128 781 l 1128 694 l 955 694 m 868 781 l 868 868 l 955 868 l 955 781 l 868 781 m 1215 434 l 1215 781 l 1128 781 l 1128 868 l 1215 868 l 1215 955 l 1302 955 l 1302 434 l 1215 434 m 1128 955 l 1128 1042 l 1215 1042 l 1215 955 l 1128 955 m 1042 1042 l 1042 1128 l 1128 1128 l 1128 1042 l 1042 1042 m 955 1128 l 955 1215 l 1042 1215 l 1042 1128 l 955 1128 m 87 434 l 87 955 l 174 955 l 174 1042 l 347 1042 l 347 1128 l 521 1128 l 521 1215 l 694 1215 l 694 1302 l 955 1302 l 955 1215 l 868 1215 l 868 868 l 781 868 l 781 781 l 608 781 l 608 694 l 434 694 l 434 608 l 347 608 l 347 694 l 260 694 l 260 781 l 174 781 l 174 434 l 87 434 z "},"N":{"ha":1476,"x_min":0,"x_max":1302,"o":"m 87 87 l 87 174 l 174 174 l 174 87 l 87 87 m 434 87 l 434 174 l 521 174 l 521 87 l 434 87 m 174 0 l 174 87 l 260 87 l 260 260 l 347 260 l 347 87 l 434 87 l 434 0 l 174 0 m 521 174 l 521 260 l 608 260 l 608 174 l 521 174 m 174 260 l 174 347 l 260 347 l 260 260 l 174 260 m 608 260 l 608 347 l 694 347 l 694 260 l 608 260 m 0 174 l 0 434 l 87 434 l 87 174 l 0 174 m 694 347 l 694 434 l 781 434 l 781 347 l 694 347 m 87 434 l 87 521 l 174 521 l 174 434 l 87 434 m 260 434 l 260 521 l 347 521 l 347 434 l 260 434 m 347 347 l 347 434 l 434 434 l 434 521 l 521 521 l 521 347 l 347 347 m 781 434 l 781 521 l 868 521 l 868 434 l 781 434 m 174 521 l 174 608 l 260 608 l 260 521 l 174 521 m 868 521 l 868 608 l 955 608 l 955 521 l 868 521 m 260 608 l 260 694 l 347 694 l 347 608 l 260 608 m 347 694 l 347 781 l 434 781 l 434 694 l 347 694 m 608 521 l 608 608 l 521 608 l 521 694 l 608 694 l 608 781 l 694 781 l 694 694 l 781 694 l 781 608 l 694 608 l 694 521 l 608 521 m 434 781 l 434 868 l 521 868 l 521 781 l 434 781 m 521 868 l 521 955 l 608 955 l 608 868 l 521 868 m 955 608 l 955 868 l 1042 868 l 1042 781 l 1128 781 l 1128 1042 l 955 1042 l 955 868 l 868 868 l 868 694 l 781 694 l 781 781 l 694 781 l 694 955 l 608 955 l 608 1042 l 781 1042 l 781 1215 l 868 1215 l 868 1302 l 1215 1302 l 1215 1215 l 1302 1215 l 1302 781 l 1215 781 l 1215 694 l 1128 694 l 1128 608 l 955 608 z "},"O":{"ha":1476,"x_min":174,"x_max":1302,"o":"m 347 347 l 347 434 l 434 434 l 434 347 l 347 347 m 260 434 l 260 521 l 347 521 l 347 434 l 260 434 m 434 434 l 434 608 l 521 608 l 521 434 l 434 434 m 434 260 l 434 347 l 608 347 l 608 434 l 694 434 l 694 347 l 868 347 l 868 434 l 781 434 l 781 608 l 868 608 l 868 521 l 955 521 l 955 434 l 1042 434 l 1042 347 l 955 347 l 955 260 l 434 260 m 521 608 l 521 694 l 608 694 l 608 608 l 521 608 m 174 521 l 174 781 l 260 781 l 260 521 l 174 521 m 955 608 l 955 781 l 1042 781 l 1042 608 l 955 608 m 260 781 l 260 868 l 347 868 l 347 781 l 260 781 m 521 781 l 521 868 l 694 868 l 694 781 l 521 781 m 868 781 l 868 868 l 955 868 l 955 781 l 868 781 m 1042 434 l 1042 608 l 1128 608 l 1128 868 l 1215 868 l 1215 521 l 1128 521 l 1128 434 l 1042 434 m 1215 868 l 1215 955 l 1302 955 l 1302 868 l 1215 868 m 694 868 l 694 1042 l 781 1042 l 781 868 l 694 868 m 868 955 l 868 1042 l 1215 1042 l 1215 955 l 868 955 m 347 868 l 347 955 l 434 955 l 434 1128 l 521 1128 l 521 868 l 347 868 m 781 1042 l 781 1128 l 868 1128 l 868 1042 l 781 1042 m 521 1128 l 521 1215 l 781 1215 l 781 1128 l 521 1128 z "},"P":{"ha":1476,"x_min":87,"x_max":1389,"o":"m 521 174 l 521 260 l 694 260 l 694 174 l 521 174 m 434 260 l 434 347 l 521 347 l 521 260 l 434 260 m 694 260 l 694 347 l 868 347 l 868 260 l 694 260 m 347 347 l 347 434 l 434 434 l 434 347 l 347 347 m 868 347 l 868 434 l 955 434 l 955 347 l 868 347 m 260 434 l 260 521 l 347 521 l 347 434 l 260 434 m 955 434 l 955 521 l 1128 521 l 1128 434 l 955 434 m 174 521 l 174 608 l 260 608 l 260 521 l 174 521 m 1128 521 l 1128 608 l 1215 608 l 1215 521 l 1128 521 m 87 608 l 87 694 l 174 694 l 174 608 l 87 608 m 1215 608 l 1215 694 l 1302 694 l 1302 608 l 1215 608 m 174 694 l 174 781 l 260 781 l 260 694 l 174 694 m 1302 694 l 1302 781 l 1389 781 l 1389 694 l 1302 694 m 260 781 l 260 868 l 434 868 l 434 781 l 260 781 m 1215 781 l 1215 868 l 1302 868 l 1302 781 l 1215 781 m 434 868 l 434 955 l 521 955 l 521 868 l 434 868 m 1128 868 l 1128 955 l 1215 955 l 1215 868 l 1128 868 m 521 955 l 521 1042 l 694 1042 l 694 955 l 521 955 m 1042 955 l 1042 1042 l 1128 1042 l 1128 955 l 1042 955 m 694 1042 l 694 1128 l 781 1128 l 781 1042 l 694 1042 m 955 1042 l 955 1128 l 1042 1128 l 1042 1042 l 955 1042 m 781 1128 l 781 1215 l 955 1215 l 955 1128 l 781 1128 z "},"Q":{"ha":1476,"x_min":87,"x_max":1302,"o":"m 260 87 l 260 174 l 434 174 l 434 87 l 260 87 m 608 87 l 608 174 l 781 174 l 781 87 l 608 87 m 868 87 l 868 174 l 1042 174 l 1042 87 l 868 87 m 174 174 l 174 260 l 260 260 l 260 174 l 174 174 m 1042 174 l 1042 260 l 1128 260 l 1128 174 l 1042 174 m 1128 260 l 1128 347 l 1215 347 l 1215 260 l 1128 260 m 174 781 l 174 868 l 260 868 l 260 781 l 174 781 m 781 174 l 781 521 l 868 521 l 868 868 l 955 868 l 955 608 l 1042 608 l 1042 694 l 1128 694 l 1128 608 l 1302 608 l 1302 347 l 1215 347 l 1215 521 l 1042 521 l 1042 434 l 955 434 l 955 347 l 868 347 l 868 174 l 781 174 m 347 1042 l 347 1128 l 434 1128 l 434 1042 l 347 1042 m 434 174 l 434 434 l 347 434 l 347 521 l 260 521 l 260 608 l 174 608 l 174 260 l 87 260 l 87 694 l 260 694 l 260 781 l 347 781 l 347 608 l 434 608 l 434 868 l 521 868 l 521 955 l 434 955 l 434 1042 l 521 1042 l 521 1128 l 608 1128 l 608 781 l 521 781 l 521 260 l 608 260 l 608 174 l 434 174 m 87 868 l 87 1215 l 347 1215 l 347 1128 l 174 1128 l 174 868 l 87 868 m 608 1128 l 608 1215 l 694 1215 l 694 1128 l 608 1128 m 694 1215 l 694 1302 l 781 1302 l 781 1215 l 694 1215 m 1128 694 l 1128 868 l 955 868 l 955 1302 l 781 1302 l 781 1389 l 1042 1389 l 1042 955 l 1215 955 l 1215 694 l 1128 694 z "},"R":{"ha":1476,"x_min":87,"x_max":1389,"o":"m 347 87 l 347 174 l 521 174 l 521 87 l 347 87 m 260 174 l 260 260 l 174 260 l 174 347 l 347 347 l 347 174 l 260 174 m 521 174 l 521 347 l 608 347 l 608 260 l 781 260 l 781 174 l 521 174 m 781 260 l 781 347 l 1042 347 l 1042 260 l 781 260 m 1042 347 l 1042 434 l 1128 434 l 1128 347 l 1042 347 m 87 347 l 87 521 l 174 521 l 174 347 l 87 347 m 868 434 l 868 521 l 955 521 l 955 434 l 868 434 m 1128 434 l 1128 521 l 1215 521 l 1215 434 l 1128 434 m 174 521 l 174 608 l 260 608 l 260 521 l 174 521 m 608 434 l 608 608 l 694 608 l 694 434 l 608 434 m 1215 521 l 1215 608 l 1302 608 l 1302 521 l 1215 521 m 260 608 l 260 694 l 347 694 l 347 781 l 434 781 l 434 608 l 260 608 m 1128 608 l 1128 781 l 1215 781 l 1215 608 l 1128 608 m 434 781 l 434 868 l 521 868 l 521 781 l 434 781 m 694 781 l 694 868 l 781 868 l 781 781 l 694 781 m 1215 781 l 1215 868 l 1302 868 l 1302 781 l 1215 781 m 955 781 l 955 868 l 1042 868 l 1042 955 l 1128 955 l 1128 781 l 955 781 m 521 868 l 521 1042 l 608 1042 l 608 868 l 521 868 m 781 955 l 781 1042 l 868 1042 l 868 955 l 781 955 m 1302 868 l 1302 955 l 1128 955 l 1128 1042 l 1389 1042 l 1389 868 l 1302 868 m 608 1042 l 608 1128 l 694 1128 l 694 1042 l 608 1042 m 1042 1042 l 1042 1128 l 1128 1128 l 1128 1042 l 1042 1042 m 694 1128 l 694 1215 l 868 1215 l 868 1128 l 694 1128 m 955 1128 l 955 1215 l 868 1215 l 868 1302 l 1042 1302 l 1042 1128 l 955 1128 z "},"S":{"ha":1476,"x_min":174,"x_max":1302,"o":"m 521 174 l 521 347 l 608 347 l 608 260 l 781 260 l 781 174 l 521 174 m 781 260 l 781 347 l 955 347 l 955 260 l 781 260 m 694 347 l 694 521 l 781 521 l 781 347 l 694 347 m 608 521 l 608 608 l 694 608 l 694 521 l 608 521 m 260 347 l 260 434 l 174 434 l 174 694 l 260 694 l 260 608 l 347 608 l 347 521 l 434 521 l 434 434 l 521 434 l 521 347 l 260 347 m 521 608 l 521 694 l 608 694 l 608 608 l 521 608 m 260 694 l 260 781 l 521 781 l 521 694 l 260 694 m 955 781 l 955 868 l 1042 868 l 1042 781 l 955 781 m 1042 87 l 1042 347 l 955 347 l 955 434 l 1042 434 l 1042 781 l 1128 781 l 1128 608 l 1215 608 l 1215 781 l 1128 781 l 1128 955 l 1215 955 l 1215 868 l 1302 868 l 1302 521 l 1215 521 l 1215 434 l 1128 434 l 1128 260 l 1215 260 l 1215 87 l 1042 87 m 521 781 l 521 868 l 694 868 l 694 955 l 781 955 l 781 1042 l 1128 1042 l 1128 955 l 868 955 l 868 868 l 781 868 l 781 781 l 521 781 z "},"T":{"ha":1476,"x_min":87,"x_max":1302,"o":"m 521 0 l 521 87 l 868 87 l 868 0 l 521 0 m 608 521 l 608 608 l 781 608 l 781 521 l 608 521 m 434 87 l 434 260 l 347 260 l 347 434 l 174 434 l 174 521 l 347 521 l 347 608 l 174 608 l 174 521 l 87 521 l 87 694 l 347 694 l 347 1215 l 434 1215 l 434 868 l 521 868 l 521 955 l 608 955 l 608 781 l 434 781 l 434 694 l 608 694 l 608 608 l 434 608 l 434 347 l 955 347 l 955 608 l 781 608 l 781 694 l 955 694 l 955 781 l 781 781 l 781 868 l 868 868 l 868 955 l 955 955 l 955 1215 l 1042 1215 l 1042 694 l 1302 694 l 1302 521 l 1215 521 l 1215 608 l 1042 608 l 1042 521 l 1215 521 l 1215 434 l 1042 434 l 1042 260 l 955 260 l 955 87 l 868 87 l 868 260 l 521 260 l 521 87 l 434 87 m 434 1215 l 434 1302 l 955 1302 l 955 1215 l 434 1215 z "},"U":{"ha":1476,"x_min":260,"x_max":1215,"o":"m 434 87 l 434 174 l 868 174 l 868 87 l 434 87 m 347 174 l 347 260 l 434 260 l 434 174 l 347 174 m 868 174 l 868 260 l 1128 260 l 1128 174 l 868 174 m 608 434 l 608 694 l 521 694 l 521 781 l 608 781 l 608 868 l 694 868 l 694 955 l 781 955 l 781 868 l 868 868 l 868 781 l 955 781 l 955 694 l 868 694 l 868 434 l 608 434 m 260 260 l 260 1215 l 347 1215 l 347 260 l 260 260 m 1128 260 l 1128 1215 l 1215 1215 l 1215 260 l 1128 260 m 347 1215 l 347 1302 l 1128 1302 l 1128 1215 l 347 1215 z "},"V":{"ha":1476,"x_min":0,"x_max":1389,"o":"m 694 0 l 694 87 l 868 87 l 868 0 l 694 0 m 174 0 l 174 87 l 87 87 l 87 260 l 0 260 l 0 347 l 174 347 l 174 434 l 347 434 l 347 694 l 260 694 l 260 781 l 87 781 l 87 694 l 0 694 l 0 868 l 87 868 l 87 955 l 174 955 l 174 1042 l 0 1042 l 0 1215 l 87 1215 l 87 1302 l 260 1302 l 260 1389 l 868 1389 l 868 1215 l 781 1215 l 781 1302 l 521 1302 l 521 1215 l 434 1215 l 434 1128 l 347 1128 l 347 955 l 434 955 l 434 868 l 608 868 l 608 955 l 781 955 l 781 1128 l 868 1128 l 868 1215 l 955 1215 l 955 1389 l 1302 1389 l 1302 1215 l 1215 1215 l 1215 955 l 1389 955 l 1389 868 l 1215 868 l 1215 608 l 1302 608 l 1302 521 l 1042 521 l 1042 347 l 1128 347 l 1128 260 l 1215 260 l 1215 347 l 1389 347 l 1389 87 l 1302 87 l 1302 174 l 1128 174 l 1128 87 l 1215 87 l 1215 0 l 955 0 l 955 87 l 868 87 l 868 174 l 955 174 l 955 260 l 868 260 l 868 174 l 781 174 l 781 434 l 868 434 l 868 608 l 955 608 l 955 694 l 868 694 l 868 781 l 955 781 l 955 868 l 1042 868 l 1042 955 l 868 955 l 868 868 l 781 868 l 781 694 l 694 694 l 694 781 l 608 781 l 608 608 l 521 608 l 521 434 l 608 434 l 608 174 l 521 174 l 521 260 l 434 260 l 434 87 l 608 87 l 608 0 l 174 0 z "},"W":{"ha":1476,"x_min":87,"x_max":1389,"o":"m 347 0 l 347 87 l 434 87 l 434 0 l 347 0 m 87 0 l 87 434 l 260 434 l 260 347 l 174 347 l 174 174 l 347 174 l 347 87 l 174 87 l 174 0 l 87 0 m 955 347 l 955 434 l 1215 434 l 1215 347 l 955 347 m 781 434 l 781 521 l 955 521 l 955 434 l 781 434 m 955 521 l 955 608 l 1128 608 l 1128 521 l 955 521 m 1128 608 l 1128 694 l 1302 694 l 1302 608 l 1128 608 m 434 87 l 434 434 l 260 434 l 260 521 l 347 521 l 347 608 l 434 608 l 434 781 l 521 781 l 521 521 l 608 521 l 608 434 l 781 434 l 781 347 l 608 347 l 608 260 l 521 260 l 521 87 l 434 87 m 1302 694 l 1302 781 l 1389 781 l 1389 694 l 1302 694 m 1215 781 l 1215 955 l 1389 955 l 1389 868 l 1302 868 l 1302 781 l 1215 781 m 1128 955 l 1128 1042 l 1042 1042 l 1042 1128 l 1302 1128 l 1302 1042 l 1215 1042 l 1215 955 l 1128 955 m 521 781 l 521 1215 l 608 1215 l 608 1128 l 694 1128 l 694 1042 l 608 1042 l 608 781 l 521 781 m 955 1128 l 955 1215 l 1042 1215 l 1042 1128 l 955 1128 m 1302 1128 l 1302 1215 l 1389 1215 l 1389 1128 l 1302 1128 m 1042 1215 l 1042 1302 l 1128 1302 l 1128 1215 l 1042 1215 m 694 1128 l 694 1302 l 868 1302 l 868 1389 l 955 1389 l 955 1215 l 781 1215 l 781 1128 l 694 1128 z "},"X":{"ha":1476,"x_min":174,"x_max":1215,"o":"m 174 87 l 174 260 l 260 260 l 260 174 l 347 174 l 347 87 l 174 87 m 347 174 l 347 260 l 434 260 l 434 174 l 347 174 m 260 260 l 260 347 l 347 347 l 347 260 l 260 260 m 434 260 l 434 347 l 521 347 l 521 260 l 434 260 m 347 347 l 347 434 l 434 434 l 434 347 l 347 347 m 521 347 l 521 434 l 608 434 l 608 347 l 521 347 m 434 434 l 434 521 l 521 521 l 521 434 l 434 434 m 608 434 l 608 521 l 694 521 l 694 434 l 608 434 m 521 521 l 521 608 l 608 608 l 608 521 l 521 521 m 694 521 l 694 608 l 781 608 l 781 521 l 694 521 m 608 608 l 608 694 l 694 694 l 694 608 l 608 608 m 781 608 l 781 694 l 868 694 l 868 608 l 781 608 m 955 608 l 955 694 l 1128 694 l 1128 608 l 955 608 m 868 694 l 868 781 l 955 781 l 955 694 l 868 694 m 694 694 l 694 781 l 608 781 l 608 868 l 868 868 l 868 781 l 781 781 l 781 694 l 694 694 m 1128 694 l 1128 868 l 1215 868 l 1215 694 l 1128 694 m 521 868 l 521 1042 l 608 1042 l 608 868 l 521 868 m 608 1042 l 608 1128 l 694 1128 l 694 1042 l 608 1042 m 694 1128 l 694 1215 l 781 1215 l 781 1128 l 694 1128 m 1042 868 l 1042 955 l 955 955 l 955 1215 l 1042 1215 l 1042 1042 l 1128 1042 l 1128 868 l 1042 868 m 781 1215 l 781 1302 l 955 1302 l 955 1215 l 781 1215 z "},"Y":{"ha":1476,"x_min":174,"x_max":1215,"o":"m 521 174 l 521 260 l 608 260 l 608 347 l 694 347 l 694 260 l 868 260 l 868 174 l 521 174 m 260 347 l 260 434 l 347 434 l 347 347 l 260 347 m 347 260 l 347 347 l 434 347 l 434 434 l 521 434 l 521 260 l 347 260 m 694 347 l 694 434 l 781 434 l 781 347 l 694 347 m 868 260 l 868 434 l 955 434 l 955 347 l 1042 347 l 1042 260 l 868 260 m 1042 347 l 1042 434 l 1128 434 l 1128 347 l 1042 347 m 608 434 l 608 521 l 694 521 l 694 434 l 608 434 m 781 434 l 781 521 l 868 521 l 868 434 l 781 434 m 347 434 l 347 608 l 434 608 l 434 434 l 347 434 m 521 521 l 521 608 l 608 608 l 608 521 l 521 521 m 694 521 l 694 608 l 781 608 l 781 521 l 694 521 m 955 434 l 955 608 l 1042 608 l 1042 434 l 955 434 m 174 434 l 174 694 l 260 694 l 260 434 l 174 434 m 434 608 l 434 694 l 521 694 l 521 608 l 434 608 m 781 608 l 781 694 l 868 694 l 868 608 l 781 608 m 260 694 l 260 781 l 347 781 l 347 694 l 260 694 m 521 694 l 521 781 l 608 781 l 608 694 l 521 694 m 868 694 l 868 781 l 955 781 l 955 694 l 868 694 m 1128 434 l 1128 608 l 1042 608 l 1042 781 l 1128 781 l 1128 694 l 1215 694 l 1215 434 l 1128 434 m 347 781 l 347 868 l 434 868 l 434 781 l 347 781 m 608 781 l 608 868 l 781 868 l 781 781 l 608 781 m 434 868 l 434 955 l 521 955 l 521 868 l 434 868 m 781 868 l 781 955 l 868 955 l 868 868 l 781 868 m 868 955 l 868 1042 l 955 1042 l 955 955 l 868 955 m 521 955 l 521 1042 l 608 1042 l 608 1128 l 868 1128 l 868 1042 l 694 1042 l 694 955 l 521 955 m 868 1128 l 868 1215 l 955 1215 l 955 1128 l 868 1128 m 955 781 l 955 955 l 1042 955 l 1042 1215 l 1128 1215 l 1128 955 l 1215 955 l 1215 781 l 1128 781 l 1128 868 l 1042 868 l 1042 781 l 955 781 m 955 1215 l 955 1302 l 1042 1302 l 1042 1215 l 955 1215 z "},"Z":{"ha":1476,"x_min":0,"x_max":1389,"o":"m 304 347 l 304 521 l 391 521 l 391 434 l 651 434 l 651 347 l 304 347 m 391 521 l 391 608 l 477 608 l 477 521 l 391 521 m 998 347 l 998 608 l 1085 608 l 1085 347 l 998 347 m 477 608 l 477 694 l 564 694 l 564 608 l 477 608 m 738 347 l 738 694 l 998 694 l 998 608 l 825 608 l 825 347 l 738 347 m 564 694 l 564 781 l 304 781 l 304 868 l 651 868 l 651 694 l 564 694 m 174 998 l 174 1042 l 347 1042 l 347 998 l 174 998 m 477 998 l 477 1042 l 608 1042 l 608 998 l 477 998 m 347 1042 l 347 1085 l 391 1085 l 391 1042 l 347 1042 m 217 1085 l 217 1128 l 347 1128 l 347 1085 l 217 1085 m 521 1085 l 521 1128 l 564 1128 l 564 1085 l 521 1085 m 347 1128 l 347 1172 l 391 1172 l 391 1128 l 347 1128 m 434 1042 l 434 1172 l 477 1172 l 477 1042 l 434 1042 m 608 1042 l 608 1172 l 651 1172 l 651 1042 l 608 1042 m 174 1172 l 174 1215 l 347 1215 l 347 1172 l 174 1172 m 477 1172 l 477 1215 l 608 1215 l 608 1172 l 477 1172 m 1302 87 l 1302 1302 l 87 1302 l 87 87 l 1302 87 m 0 0 l 0 1389 l 1389 1389 l 1389 0 l 0 0 z "},"a":{"ha":1389,"x_min":174,"x_max":1215,"o":"m 434 87 l 434 174 l 955 174 l 955 87 l 434 87 m 347 174 l 347 260 l 434 260 l 434 174 l 347 174 m 955 174 l 955 260 l 1042 260 l 1042 174 l 955 174 m 260 260 l 260 434 l 347 434 l 347 260 l 260 260 m 1042 260 l 1042 434 l 1128 434 l 1128 260 l 1042 260 m 174 434 l 174 868 l 260 868 l 260 434 l 174 434 m 260 868 l 260 955 l 434 955 l 434 868 l 260 868 m 1128 434 l 1128 781 l 1042 781 l 1042 868 l 955 868 l 955 955 l 1128 955 l 1128 868 l 1215 868 l 1215 434 l 1128 434 m 608 868 l 608 955 l 434 955 l 434 1042 l 694 1042 l 694 1128 l 781 1128 l 781 1042 l 955 1042 l 955 955 l 694 955 l 694 868 l 608 868 m 781 1128 l 781 1302 l 868 1302 l 868 1128 l 781 1128 z "},"b":{"ha":1389,"x_min":0,"x_max":1389,"o":"m 434 434 l 434 521 l 694 521 l 694 434 l 434 434 m 347 521 l 347 608 l 434 608 l 434 521 l 347 521 m 694 521 l 694 608 l 868 608 l 868 521 l 694 521 m 260 608 l 260 694 l 347 694 l 347 608 l 260 608 m 868 608 l 868 694 l 1042 694 l 1042 608 l 868 608 m 521 694 l 521 781 l 608 781 l 608 694 l 521 694 m 434 781 l 434 868 l 521 868 l 521 781 l 434 781 m 868 781 l 868 868 l 955 868 l 955 781 l 868 781 m 1302 781 l 1302 868 l 1389 868 l 1389 781 l 1302 781 m 434 87 l 434 174 l 347 174 l 347 260 l 260 260 l 260 347 l 174 347 l 174 434 l 87 434 l 87 521 l 0 521 l 0 955 l 174 955 l 174 868 l 87 868 l 87 781 l 260 781 l 260 694 l 174 694 l 174 521 l 260 521 l 260 434 l 347 434 l 347 347 l 434 347 l 434 260 l 694 260 l 694 347 l 868 347 l 868 434 l 1042 434 l 1042 521 l 1215 521 l 1215 694 l 1042 694 l 1042 781 l 1302 781 l 1302 608 l 1389 608 l 1389 434 l 1215 434 l 1215 347 l 1042 347 l 1042 260 l 868 260 l 868 174 l 694 174 l 694 87 l 434 87 m 781 868 l 781 955 l 868 955 l 868 868 l 781 868 m 1215 868 l 1215 955 l 1302 955 l 1302 868 l 1215 868 m 174 955 l 174 1042 l 347 1042 l 347 955 l 174 955 m 694 955 l 694 1042 l 781 1042 l 781 955 l 694 955 m 1128 955 l 1128 1042 l 1215 1042 l 1215 955 l 1128 955 m 347 1042 l 347 1128 l 521 1128 l 521 1042 l 347 1042 m 1042 1042 l 1042 1128 l 1128 1128 l 1128 1042 l 1042 1042 m 521 1128 l 521 1215 l 694 1215 l 694 1128 l 521 1128 m 955 1128 l 955 1215 l 1042 1215 l 1042 1128 l 955 1128 m 694 1215 l 694 1302 l 955 1302 l 955 1215 l 694 1215 z "},"c":{"ha":1389,"x_min":174,"x_max":1302,"o":"m 434 87 l 434 174 l 781 174 l 781 87 l 434 87 m 347 174 l 347 260 l 434 260 l 434 174 l 347 174 m 781 174 l 781 260 l 1128 260 l 1128 174 l 781 174 m 260 260 l 260 347 l 347 347 l 347 260 l 260 260 m 1128 260 l 1128 347 l 1215 347 l 1215 260 l 1128 260 m 1215 347 l 1215 608 l 1302 608 l 1302 347 l 1215 347 m 174 347 l 174 781 l 260 781 l 260 347 l 174 347 m 1128 608 l 1128 781 l 1215 781 l 1215 608 l 1128 608 m 1042 781 l 1042 868 l 1128 868 l 1128 781 l 1042 781 m 955 868 l 955 955 l 1042 955 l 1042 868 l 955 868 m 260 781 l 260 1042 l 347 1042 l 347 781 l 260 781 m 868 955 l 868 1042 l 955 1042 l 955 955 l 868 955 m 347 1042 l 347 1128 l 434 1128 l 434 1042 l 347 1042 m 781 1042 l 781 1128 l 868 1128 l 868 1042 l 781 1042 m 434 1128 l 434 1215 l 781 1215 l 781 1128 l 434 1128 z "},"d":{"ha":1389,"x_min":174,"x_max":1215,"o":"m 260 260 l 260 434 l 347 434 l 347 260 l 260 260 m 434 87 l 434 174 l 347 174 l 347 260 l 434 260 l 434 434 l 521 434 l 521 174 l 868 174 l 868 434 l 955 434 l 955 260 l 1042 260 l 1042 174 l 955 174 l 955 87 l 434 87 m 1042 260 l 1042 434 l 1128 434 l 1128 260 l 1042 260 m 521 434 l 521 521 l 868 521 l 868 434 l 521 434 m 174 434 l 174 781 l 260 781 l 260 608 l 434 608 l 434 781 l 521 781 l 521 521 l 260 521 l 260 434 l 174 434 m 1128 434 l 1128 521 l 868 521 l 868 781 l 955 781 l 955 608 l 1128 608 l 1128 781 l 1215 781 l 1215 434 l 1128 434 m 260 781 l 260 955 l 347 955 l 347 868 l 434 868 l 434 781 l 260 781 m 521 781 l 521 868 l 694 868 l 694 955 l 781 955 l 781 868 l 868 868 l 868 781 l 521 781 m 1042 781 l 1042 955 l 1128 955 l 1128 781 l 1042 781 m 347 955 l 347 1042 l 434 1042 l 434 955 l 347 955 m 781 955 l 781 1042 l 868 1042 l 868 955 l 781 955 m 955 955 l 955 1042 l 1042 1042 l 1042 955 l 955 955 m 434 1042 l 434 1128 l 521 1128 l 521 1042 l 434 1042 m 868 1042 l 868 1128 l 955 1128 l 955 1042 l 868 1042 m 521 1128 l 521 1215 l 868 1215 l 868 1128 l 521 1128 z "},"e":{"ha":1389,"x_min":260,"x_max":1128,"o":"m 521 174 l 521 260 l 868 260 l 868 174 l 521 174 m 868 260 l 868 347 l 955 347 l 955 260 l 868 260 m 955 347 l 955 434 l 1042 434 l 1042 347 l 955 347 m 1042 434 l 1042 955 l 1128 955 l 1128 434 l 1042 434 m 347 955 l 347 1042 l 434 1042 l 434 955 l 347 955 m 955 955 l 955 1042 l 1042 1042 l 1042 955 l 955 955 m 434 1042 l 434 1128 l 521 1128 l 521 1042 l 434 1042 m 868 1042 l 868 1128 l 955 1128 l 955 1042 l 868 1042 m 434 260 l 434 347 l 347 347 l 347 434 l 521 434 l 521 781 l 347 781 l 347 434 l 260 434 l 260 955 l 347 955 l 347 868 l 608 868 l 608 434 l 781 434 l 781 868 l 608 868 l 608 1128 l 521 1128 l 521 1215 l 868 1215 l 868 1128 l 694 1128 l 694 955 l 868 955 l 868 347 l 521 347 l 521 260 l 434 260 z "},"f":{"ha":1389,"x_min":174,"x_max":1302,"o":"m 174 87 l 174 260 l 260 260 l 260 174 l 347 174 l 347 87 l 174 87 m 347 174 l 347 260 l 434 260 l 434 174 l 347 174 m 521 174 l 521 260 l 694 260 l 694 174 l 521 174 m 868 87 l 868 260 l 955 260 l 955 174 l 1042 174 l 1042 87 l 868 87 m 260 260 l 260 347 l 347 347 l 347 260 l 260 260 m 1042 174 l 1042 347 l 1128 347 l 1128 174 l 1042 174 m 694 260 l 694 434 l 781 434 l 781 260 l 694 260 m 1128 347 l 1128 521 l 1215 521 l 1215 347 l 1128 347 m 694 521 l 694 608 l 781 608 l 781 521 l 694 521 m 781 608 l 781 694 l 868 694 l 868 608 l 781 608 m 868 694 l 868 781 l 955 781 l 955 694 l 868 694 m 955 781 l 955 868 l 1042 868 l 1042 781 l 955 781 m 1042 868 l 1042 955 l 1128 955 l 1128 868 l 1042 868 m 434 260 l 434 347 l 347 347 l 347 434 l 434 434 l 434 608 l 521 608 l 521 694 l 608 694 l 608 781 l 694 781 l 694 868 l 781 868 l 781 955 l 868 955 l 868 1042 l 955 1042 l 955 1128 l 1042 1128 l 1042 1215 l 1128 1215 l 1128 1302 l 1302 1302 l 1302 521 l 1215 521 l 1215 955 l 1128 955 l 1128 1042 l 1215 1042 l 1215 1128 l 1128 1128 l 1128 1042 l 1042 1042 l 1042 955 l 955 955 l 955 868 l 868 868 l 868 781 l 781 781 l 781 694 l 694 694 l 694 608 l 608 608 l 608 521 l 694 521 l 694 434 l 521 434 l 521 260 l 434 260 z "},"g":{"ha":1389,"x_min":434,"x_max":955,"o":"m 608 347 l 608 434 l 781 434 l 781 347 l 608 347 m 521 434 l 521 521 l 608 521 l 608 434 l 521 434 m 781 434 l 781 521 l 868 521 l 868 434 l 781 434 m 434 521 l 434 781 l 521 781 l 521 521 l 434 521 m 868 521 l 868 781 l 955 781 l 955 521 l 868 521 m 521 781 l 521 955 l 608 955 l 608 781 l 521 781 m 781 781 l 781 955 l 868 955 l 868 781 l 781 781 m 608 955 l 608 1042 l 781 1042 l 781 955 l 608 955 z "},"h":{"ha":1389,"x_min":260,"x_max":1128,"o":"m 347 347 l 347 434 l 434 434 l 434 694 l 521 694 l 521 781 l 868 781 l 868 694 l 955 694 l 955 434 l 1042 434 l 1042 347 l 868 347 l 868 434 l 521 434 l 521 347 l 347 347 m 260 434 l 260 955 l 347 955 l 347 434 l 260 434 m 1042 434 l 1042 955 l 1128 955 l 1128 434 l 1042 434 m 347 955 l 347 1042 l 434 1042 l 434 955 l 347 955 m 955 955 l 955 1042 l 1042 1042 l 1042 955 l 955 955 m 434 1042 l 434 1128 l 955 1128 l 955 1042 l 434 1042 z "},"i":{"ha":1389,"x_min":0,"x_max":1389,"o":"m 174 260 l 174 347 l 260 347 l 260 260 l 174 260 m 608 260 l 608 347 l 868 347 l 868 260 l 608 260 m 87 347 l 87 434 l 174 434 l 174 347 l 87 347 m 868 347 l 868 434 l 1128 434 l 1128 347 l 868 347 m 1128 434 l 1128 521 l 1302 521 l 1302 434 l 1128 434 m 260 174 l 260 260 l 347 260 l 347 608 l 521 608 l 521 521 l 434 521 l 434 260 l 608 260 l 608 174 l 260 174 m 260 608 l 260 694 l 347 694 l 347 608 l 260 608 m 521 608 l 521 694 l 781 694 l 781 608 l 521 608 m 174 694 l 174 781 l 260 781 l 260 694 l 174 694 m 781 694 l 781 781 l 1042 781 l 1042 694 l 781 694 m 1042 781 l 1042 868 l 1215 868 l 1215 781 l 1042 781 m 1302 521 l 1302 868 l 1389 868 l 1389 521 l 1302 521 m 0 434 l 0 868 l 87 868 l 87 955 l 347 955 l 347 868 l 174 868 l 174 781 l 87 781 l 87 434 l 0 434 m 1215 868 l 1215 955 l 1302 955 l 1302 868 l 1215 868 m 347 955 l 347 1042 l 608 1042 l 608 955 l 347 955 m 1128 955 l 1128 1042 l 1215 1042 l 1215 955 l 1128 955 m 608 1042 l 608 1128 l 868 1128 l 868 1042 l 608 1042 m 1042 1042 l 1042 1128 l 1128 1128 l 1128 1042 l 1042 1042 m 868 1128 l 868 1215 l 1042 1215 l 1042 1128 l 868 1128 z "},"j":{"ha":1389,"x_min":0,"x_max":1389,"o":"m 608 174 l 608 260 l 694 260 l 694 174 l 608 174 m 781 174 l 781 260 l 955 260 l 955 174 l 781 174 m 260 260 l 260 347 l 347 347 l 347 260 l 260 260 m 347 174 l 347 260 l 434 260 l 434 347 l 521 347 l 521 174 l 347 174 m 694 260 l 694 347 l 781 347 l 781 260 l 694 260 m 174 347 l 174 521 l 260 521 l 260 608 l 347 608 l 347 521 l 434 521 l 434 608 l 521 608 l 521 434 l 260 434 l 260 347 l 174 347 m 608 434 l 608 521 l 694 521 l 694 608 l 781 608 l 781 434 l 608 434 m 868 434 l 868 521 l 955 521 l 955 608 l 1042 608 l 1042 434 l 868 434 m 1128 434 l 1128 608 l 1215 608 l 1215 434 l 1128 434 m 347 694 l 347 781 l 521 781 l 521 694 l 347 694 m 868 694 l 868 781 l 955 781 l 955 694 l 868 694 m 1128 694 l 1128 781 l 1215 781 l 1215 694 l 1128 694 m 521 781 l 521 955 l 608 955 l 608 781 l 521 781 m 260 781 l 260 1042 l 347 1042 l 347 781 l 260 781 m 1042 781 l 1042 1042 l 1128 1042 l 1128 781 l 1042 781 m 521 1042 l 521 1128 l 608 1128 l 608 1042 l 521 1042 m 347 1042 l 347 1215 l 521 1215 l 521 1128 l 434 1128 l 434 1042 l 347 1042 m 781 781 l 781 1128 l 868 1128 l 868 1215 l 955 1215 l 955 1128 l 1042 1128 l 1042 1042 l 868 1042 l 868 781 l 781 781 m 1302 87 l 1302 174 l 1042 174 l 1042 347 l 1128 347 l 1128 260 l 1302 260 l 1302 1302 l 87 1302 l 87 87 l 1302 87 m 0 0 l 0 1389 l 1389 1389 l 1389 0 l 0 0 z "},"k":{"ha":1389,"x_min":87,"x_max":1302,"o":"m 521 174 l 521 260 l 608 260 l 608 174 l 521 174 m 608 260 l 608 434 l 694 434 l 694 260 l 608 260 m 260 347 l 260 521 l 347 521 l 347 347 l 260 347 m 694 434 l 694 521 l 781 521 l 781 434 l 694 434 m 174 87 l 174 174 l 87 174 l 87 608 l 174 608 l 174 347 l 260 347 l 260 174 l 521 174 l 521 87 l 174 87 m 347 521 l 347 608 l 434 608 l 434 521 l 347 521 m 781 521 l 781 608 l 868 608 l 868 521 l 781 521 m 434 608 l 434 694 l 521 694 l 521 608 l 434 608 m 868 608 l 868 694 l 955 694 l 955 608 l 868 608 m 174 608 l 174 781 l 260 781 l 260 608 l 174 608 m 521 694 l 521 781 l 608 781 l 608 694 l 521 694 m 955 694 l 955 781 l 1128 781 l 1128 694 l 955 694 m 260 781 l 260 868 l 347 868 l 347 781 l 260 781 m 608 781 l 608 868 l 781 868 l 781 781 l 608 781 m 1128 781 l 1128 868 l 1215 868 l 1215 781 l 1128 781 m 347 868 l 347 955 l 434 955 l 434 868 l 347 868 m 781 868 l 781 955 l 1042 955 l 1042 868 l 781 868 m 434 955 l 434 1042 l 694 1042 l 694 955 l 434 955 m 1042 955 l 1042 1042 l 1128 1042 l 1128 955 l 1042 955 m 694 1042 l 694 1128 l 955 1128 l 955 1042 l 694 1042 m 1215 868 l 1215 1042 l 1128 1042 l 1128 1128 l 955 1128 l 955 1215 l 1128 1215 l 1128 1302 l 1302 1302 l 1302 868 l 1215 868 z "},"l":{"ha":1389,"x_min":174,"x_max":1215,"o":"m 260 174 l 260 260 l 608 260 l 608 174 l 260 174 m 608 260 l 608 347 l 868 347 l 868 260 l 608 260 m 347 347 l 347 434 l 521 434 l 521 347 l 347 347 m 868 347 l 868 434 l 955 434 l 955 347 l 868 347 m 521 434 l 521 521 l 608 521 l 608 434 l 521 434 m 955 434 l 955 521 l 1042 521 l 1042 434 l 955 434 m 174 260 l 174 608 l 260 608 l 260 521 l 347 521 l 347 434 l 260 434 l 260 260 l 174 260 m 608 521 l 608 608 l 694 608 l 694 521 l 608 521 m 260 608 l 260 694 l 347 694 l 347 608 l 260 608 m 694 608 l 694 694 l 781 694 l 781 608 l 694 608 m 1042 521 l 1042 694 l 1128 694 l 1128 521 l 1042 521 m 781 694 l 781 781 l 868 781 l 868 694 l 781 694 m 347 694 l 347 955 l 434 955 l 434 694 l 347 694 m 868 781 l 868 955 l 955 955 l 955 781 l 868 781 m 434 955 l 434 1042 l 521 1042 l 521 955 l 434 955 m 955 955 l 955 1042 l 1042 1042 l 1042 955 l 955 955 m 1128 694 l 1128 1042 l 1215 1042 l 1215 694 l 1128 694 m 521 1042 l 521 1128 l 608 1128 l 608 1042 l 521 1042 m 1042 1042 l 1042 1128 l 1128 1128 l 1128 1042 l 1042 1042 m 608 1128 l 608 1215 l 1042 1215 l 1042 1128 l 608 1128 z "},"m":{"ha":1389,"x_min":87,"x_max":1302,"o":"m 347 174 l 347 260 l 434 260 l 434 174 l 347 174 m 260 260 l 260 347 l 347 347 l 347 260 l 260 260 m 174 347 l 174 434 l 260 434 l 260 347 l 174 347 m 868 260 l 868 347 l 1042 347 l 1042 434 l 1215 434 l 1215 260 l 868 260 m 434 87 l 434 174 l 521 174 l 521 521 l 608 521 l 608 174 l 694 174 l 694 260 l 868 260 l 868 87 l 434 87 m 434 521 l 434 608 l 521 608 l 521 521 l 434 521 m 608 521 l 608 608 l 781 608 l 781 521 l 608 521 m 781 608 l 781 694 l 955 694 l 955 608 l 781 608 m 955 694 l 955 781 l 1128 781 l 1128 694 l 955 694 m 868 781 l 868 868 l 955 868 l 955 781 l 868 781 m 1215 434 l 1215 781 l 1128 781 l 1128 868 l 1215 868 l 1215 955 l 1302 955 l 1302 434 l 1215 434 m 1128 955 l 1128 1042 l 1215 1042 l 1215 955 l 1128 955 m 1042 1042 l 1042 1128 l 1128 1128 l 1128 1042 l 1042 1042 m 955 1128 l 955 1215 l 1042 1215 l 1042 1128 l 955 1128 m 87 434 l 87 955 l 174 955 l 174 1042 l 347 1042 l 347 1128 l 521 1128 l 521 1215 l 694 1215 l 694 1302 l 955 1302 l 955 1215 l 868 1215 l 868 868 l 781 868 l 781 781 l 608 781 l 608 694 l 434 694 l 434 608 l 347 608 l 347 694 l 260 694 l 260 781 l 174 781 l 174 434 l 87 434 z "},"n":{"ha":1389,"x_min":0,"x_max":1302,"o":"m 87 87 l 87 174 l 174 174 l 174 87 l 87 87 m 434 87 l 434 174 l 521 174 l 521 87 l 434 87 m 174 0 l 174 87 l 260 87 l 260 260 l 347 260 l 347 87 l 434 87 l 434 0 l 174 0 m 521 174 l 521 260 l 608 260 l 608 174 l 521 174 m 174 260 l 174 347 l 260 347 l 260 260 l 174 260 m 608 260 l 608 347 l 694 347 l 694 260 l 608 260 m 0 174 l 0 434 l 87 434 l 87 174 l 0 174 m 694 347 l 694 434 l 781 434 l 781 347 l 694 347 m 87 434 l 87 521 l 174 521 l 174 434 l 87 434 m 260 434 l 260 521 l 347 521 l 347 434 l 260 434 m 347 347 l 347 434 l 434 434 l 434 521 l 521 521 l 521 347 l 347 347 m 781 434 l 781 521 l 868 521 l 868 434 l 781 434 m 174 521 l 174 608 l 260 608 l 260 521 l 174 521 m 868 521 l 868 608 l 955 608 l 955 521 l 868 521 m 260 608 l 260 694 l 347 694 l 347 608 l 260 608 m 347 694 l 347 781 l 434 781 l 434 694 l 347 694 m 608 521 l 608 608 l 521 608 l 521 694 l 608 694 l 608 781 l 694 781 l 694 694 l 781 694 l 781 608 l 694 608 l 694 521 l 608 521 m 434 781 l 434 868 l 521 868 l 521 781 l 434 781 m 521 868 l 521 955 l 608 955 l 608 868 l 521 868 m 955 608 l 955 868 l 1042 868 l 1042 781 l 1128 781 l 1128 1042 l 955 1042 l 955 868 l 868 868 l 868 694 l 781 694 l 781 781 l 694 781 l 694 955 l 608 955 l 608 1042 l 781 1042 l 781 1215 l 868 1215 l 868 1302 l 1215 1302 l 1215 1215 l 1302 1215 l 1302 781 l 1215 781 l 1215 694 l 1128 694 l 1128 608 l 955 608 z "},"o":{"ha":1389,"x_min":174,"x_max":1302,"o":"m 347 347 l 347 434 l 434 434 l 434 347 l 347 347 m 260 434 l 260 521 l 347 521 l 347 434 l 260 434 m 434 434 l 434 608 l 521 608 l 521 434 l 434 434 m 434 260 l 434 347 l 608 347 l 608 434 l 694 434 l 694 347 l 868 347 l 868 434 l 781 434 l 781 608 l 868 608 l 868 521 l 955 521 l 955 434 l 1042 434 l 1042 347 l 955 347 l 955 260 l 434 260 m 521 608 l 521 694 l 608 694 l 608 608 l 521 608 m 174 521 l 174 781 l 260 781 l 260 521 l 174 521 m 955 608 l 955 781 l 1042 781 l 1042 608 l 955 608 m 260 781 l 260 868 l 347 868 l 347 781 l 260 781 m 521 781 l 521 868 l 694 868 l 694 781 l 521 781 m 868 781 l 868 868 l 955 868 l 955 781 l 868 781 m 1042 434 l 1042 608 l 1128 608 l 1128 868 l 1215 868 l 1215 521 l 1128 521 l 1128 434 l 1042 434 m 1215 868 l 1215 955 l 1302 955 l 1302 868 l 1215 868 m 694 868 l 694 1042 l 781 1042 l 781 868 l 694 868 m 868 955 l 868 1042 l 1215 1042 l 1215 955 l 868 955 m 347 868 l 347 955 l 434 955 l 434 1128 l 521 1128 l 521 868 l 347 868 m 781 1042 l 781 1128 l 868 1128 l 868 1042 l 781 1042 m 521 1128 l 521 1215 l 781 1215 l 781 1128 l 521 1128 z "},"p":{"ha":1389,"x_min":87,"x_max":1389,"o":"m 521 174 l 521 260 l 694 260 l 694 174 l 521 174 m 434 260 l 434 347 l 521 347 l 521 260 l 434 260 m 694 260 l 694 347 l 868 347 l 868 260 l 694 260 m 347 347 l 347 434 l 434 434 l 434 347 l 347 347 m 868 347 l 868 434 l 955 434 l 955 347 l 868 347 m 260 434 l 260 521 l 347 521 l 347 434 l 260 434 m 955 434 l 955 521 l 1128 521 l 1128 434 l 955 434 m 174 521 l 174 608 l 260 608 l 260 521 l 174 521 m 1128 521 l 1128 608 l 1215 608 l 1215 521 l 1128 521 m 87 608 l 87 694 l 174 694 l 174 608 l 87 608 m 1215 608 l 1215 694 l 1302 694 l 1302 608 l 1215 608 m 174 694 l 174 781 l 260 781 l 260 694 l 174 694 m 1302 694 l 1302 781 l 1389 781 l 1389 694 l 1302 694 m 260 781 l 260 868 l 434 868 l 434 781 l 260 781 m 1215 781 l 1215 868 l 1302 868 l 1302 781 l 1215 781 m 434 868 l 434 955 l 521 955 l 521 868 l 434 868 m 1128 868 l 1128 955 l 1215 955 l 1215 868 l 1128 868 m 521 955 l 521 1042 l 694 1042 l 694 955 l 521 955 m 1042 955 l 1042 1042 l 1128 1042 l 1128 955 l 1042 955 m 694 1042 l 694 1128 l 781 1128 l 781 1042 l 694 1042 m 955 1042 l 955 1128 l 1042 1128 l 1042 1042 l 955 1042 m 781 1128 l 781 1215 l 955 1215 l 955 1128 l 781 1128 z "},"q":{"ha":1389,"x_min":87,"x_max":1302,"o":"m 260 87 l 260 174 l 434 174 l 434 87 l 260 87 m 608 87 l 608 174 l 781 174 l 781 87 l 608 87 m 868 87 l 868 174 l 1042 174 l 1042 87 l 868 87 m 174 174 l 174 260 l 260 260 l 260 174 l 174 174 m 1042 174 l 1042 260 l 1128 260 l 1128 174 l 1042 174 m 1128 260 l 1128 347 l 1215 347 l 1215 260 l 1128 260 m 174 781 l 174 868 l 260 868 l 260 781 l 174 781 m 781 174 l 781 521 l 868 521 l 868 868 l 955 868 l 955 608 l 1042 608 l 1042 694 l 1128 694 l 1128 608 l 1302 608 l 1302 347 l 1215 347 l 1215 521 l 1042 521 l 1042 434 l 955 434 l 955 347 l 868 347 l 868 174 l 781 174 m 347 1042 l 347 1128 l 434 1128 l 434 1042 l 347 1042 m 434 174 l 434 434 l 347 434 l 347 521 l 260 521 l 260 608 l 174 608 l 174 260 l 87 260 l 87 694 l 260 694 l 260 781 l 347 781 l 347 694 l 434 694 l 434 868 l 521 868 l 521 955 l 434 955 l 434 1042 l 521 1042 l 521 1128 l 608 1128 l 608 781 l 521 781 l 521 260 l 608 260 l 608 174 l 434 174 m 87 868 l 87 1215 l 347 1215 l 347 1128 l 174 1128 l 174 868 l 87 868 m 608 1128 l 608 1215 l 694 1215 l 694 1128 l 608 1128 m 694 1215 l 694 1302 l 781 1302 l 781 1215 l 694 1215 m 1128 694 l 1128 868 l 955 868 l 955 1302 l 781 1302 l 781 1389 l 1042 1389 l 1042 955 l 1215 955 l 1215 694 l 1128 694 z "},"r":{"ha":1389,"x_min":87,"x_max":1389,"o":"m 347 87 l 347 174 l 521 174 l 521 87 l 347 87 m 260 174 l 260 260 l 174 260 l 174 347 l 347 347 l 347 174 l 260 174 m 521 174 l 521 347 l 608 347 l 608 260 l 781 260 l 781 174 l 521 174 m 781 260 l 781 347 l 1042 347 l 1042 260 l 781 260 m 1042 347 l 1042 434 l 1128 434 l 1128 347 l 1042 347 m 87 347 l 87 521 l 174 521 l 174 347 l 87 347 m 868 434 l 868 521 l 955 521 l 955 434 l 868 434 m 1128 434 l 1128 521 l 1215 521 l 1215 434 l 1128 434 m 174 521 l 174 608 l 260 608 l 260 521 l 174 521 m 608 434 l 608 608 l 694 608 l 694 434 l 608 434 m 1215 521 l 1215 608 l 1302 608 l 1302 521 l 1215 521 m 260 608 l 260 694 l 347 694 l 347 781 l 434 781 l 434 608 l 260 608 m 1128 608 l 1128 781 l 1215 781 l 1215 608 l 1128 608 m 434 781 l 434 868 l 521 868 l 521 781 l 434 781 m 694 781 l 694 868 l 781 868 l 781 781 l 694 781 m 1215 781 l 1215 868 l 1302 868 l 1302 781 l 1215 781 m 955 781 l 955 868 l 1042 868 l 1042 955 l 1128 955 l 1128 781 l 955 781 m 521 868 l 521 1042 l 608 1042 l 608 868 l 521 868 m 781 955 l 781 1042 l 868 1042 l 868 955 l 781 955 m 1302 868 l 1302 955 l 1128 955 l 1128 1042 l 1389 1042 l 1389 868 l 1302 868 m 608 1042 l 608 1128 l 694 1128 l 694 1042 l 608 1042 m 1042 1042 l 1042 1128 l 1128 1128 l 1128 1042 l 1042 1042 m 694 1128 l 694 1215 l 868 1215 l 868 1128 l 694 1128 m 955 1128 l 955 1215 l 868 1215 l 868 1302 l 1042 1302 l 1042 1128 l 955 1128 z "},"s":{"ha":1389,"x_min":174,"x_max":1302,"o":"m 521 174 l 521 347 l 608 347 l 608 260 l 781 260 l 781 174 l 521 174 m 781 260 l 781 347 l 955 347 l 955 260 l 781 260 m 694 347 l 694 521 l 781 521 l 781 347 l 694 347 m 608 521 l 608 608 l 694 608 l 694 521 l 608 521 m 260 347 l 260 434 l 174 434 l 174 694 l 260 694 l 260 608 l 347 608 l 347 521 l 434 521 l 434 434 l 521 434 l 521 347 l 260 347 m 521 608 l 521 694 l 608 694 l 608 608 l 521 608 m 260 694 l 260 781 l 521 781 l 521 694 l 260 694 m 955 781 l 955 868 l 1042 868 l 1042 781 l 955 781 m 1042 87 l 1042 347 l 955 347 l 955 434 l 1042 434 l 1042 781 l 1128 781 l 1128 608 l 1215 608 l 1215 781 l 1128 781 l 1128 955 l 1215 955 l 1215 868 l 1302 868 l 1302 521 l 1215 521 l 1215 434 l 1128 434 l 1128 260 l 1215 260 l 1215 87 l 1042 87 m 521 781 l 521 868 l 694 868 l 694 955 l 781 955 l 781 1042 l 1128 1042 l 1128 955 l 868 955 l 868 868 l 781 868 l 781 781 l 521 781 z "},"t":{"ha":1389,"x_min":87,"x_max":1302,"o":"m 521 0 l 521 87 l 868 87 l 868 0 l 521 0 m 608 521 l 608 608 l 781 608 l 781 521 l 608 521 m 434 87 l 434 260 l 347 260 l 347 434 l 174 434 l 174 521 l 347 521 l 347 608 l 174 608 l 174 521 l 87 521 l 87 694 l 347 694 l 347 1215 l 434 1215 l 434 868 l 521 868 l 521 955 l 608 955 l 608 781 l 434 781 l 434 694 l 608 694 l 608 608 l 434 608 l 434 347 l 955 347 l 955 608 l 781 608 l 781 694 l 955 694 l 955 781 l 781 781 l 781 868 l 868 868 l 868 955 l 955 955 l 955 1215 l 1042 1215 l 1042 694 l 1302 694 l 1302 521 l 1215 521 l 1215 608 l 1042 608 l 1042 521 l 1215 521 l 1215 434 l 1042 434 l 1042 260 l 955 260 l 955 87 l 868 87 l 868 260 l 521 260 l 521 87 l 434 87 m 434 1215 l 434 1302 l 955 1302 l 955 1215 l 434 1215 z "},"u":{"ha":1389,"x_min":260,"x_max":1215,"o":"m 434 87 l 434 174 l 868 174 l 868 87 l 434 87 m 347 174 l 347 260 l 434 260 l 434 174 l 347 174 m 868 174 l 868 260 l 1128 260 l 1128 174 l 868 174 m 608 434 l 608 694 l 521 694 l 521 781 l 608 781 l 608 868 l 694 868 l 694 955 l 781 955 l 781 868 l 868 868 l 868 781 l 955 781 l 955 694 l 868 694 l 868 434 l 608 434 m 260 260 l 260 1215 l 347 1215 l 347 260 l 260 260 m 1128 260 l 1128 1215 l 1215 1215 l 1215 260 l 1128 260 m 347 1215 l 347 1302 l 1128 1302 l 1128 1215 l 347 1215 z "},"v":{"ha":1389,"x_min":0,"x_max":1389,"o":"m 694 0 l 694 87 l 868 87 l 868 0 l 694 0 m 174 0 l 174 87 l 87 87 l 87 260 l 0 260 l 0 347 l 174 347 l 174 434 l 347 434 l 347 694 l 260 694 l 260 781 l 87 781 l 87 694 l 0 694 l 0 868 l 87 868 l 87 955 l 174 955 l 174 1042 l 0 1042 l 0 1215 l 87 1215 l 87 1302 l 260 1302 l 260 1389 l 868 1389 l 868 1215 l 781 1215 l 781 1302 l 521 1302 l 521 1215 l 434 1215 l 434 1128 l 347 1128 l 347 955 l 434 955 l 434 868 l 608 868 l 608 955 l 781 955 l 781 1128 l 868 1128 l 868 1215 l 955 1215 l 955 1389 l 1302 1389 l 1302 1215 l 1215 1215 l 1215 955 l 1389 955 l 1389 868 l 1215 868 l 1215 608 l 1302 608 l 1302 521 l 1042 521 l 1042 347 l 1128 347 l 1128 260 l 1215 260 l 1215 347 l 1389 347 l 1389 87 l 1302 87 l 1302 174 l 1128 174 l 1128 87 l 1215 87 l 1215 0 l 955 0 l 955 87 l 868 87 l 868 174 l 955 174 l 955 260 l 868 260 l 868 174 l 781 174 l 781 434 l 868 434 l 868 608 l 955 608 l 955 694 l 868 694 l 868 781 l 955 781 l 955 868 l 1042 868 l 1042 955 l 868 955 l 868 868 l 781 868 l 781 694 l 694 694 l 694 781 l 608 781 l 608 608 l 521 608 l 521 434 l 608 434 l 608 174 l 521 174 l 521 260 l 434 260 l 434 87 l 608 87 l 608 0 l 174 0 z "},"w":{"ha":1389,"x_min":87,"x_max":1389,"o":"m 347 0 l 347 87 l 434 87 l 434 0 l 347 0 m 87 0 l 87 434 l 260 434 l 260 347 l 174 347 l 174 174 l 347 174 l 347 87 l 174 87 l 174 0 l 87 0 m 955 347 l 955 434 l 1215 434 l 1215 347 l 955 347 m 781 434 l 781 521 l 955 521 l 955 434 l 781 434 m 955 521 l 955 608 l 1128 608 l 1128 521 l 955 521 m 1128 608 l 1128 694 l 1302 694 l 1302 608 l 1128 608 m 434 87 l 434 434 l 260 434 l 260 521 l 347 521 l 347 608 l 434 608 l 434 781 l 521 781 l 521 521 l 608 521 l 608 434 l 781 434 l 781 347 l 608 347 l 608 260 l 521 260 l 521 87 l 434 87 m 1302 694 l 1302 781 l 1389 781 l 1389 694 l 1302 694 m 1215 781 l 1215 955 l 1389 955 l 1389 868 l 1302 868 l 1302 781 l 1215 781 m 1128 955 l 1128 1042 l 1042 1042 l 1042 1128 l 1302 1128 l 1302 1042 l 1215 1042 l 1215 955 l 1128 955 m 521 781 l 521 1215 l 608 1215 l 608 1128 l 694 1128 l 694 1042 l 608 1042 l 608 781 l 521 781 m 955 1128 l 955 1215 l 1042 1215 l 1042 1128 l 955 1128 m 1302 1128 l 1302 1215 l 1389 1215 l 1389 1128 l 1302 1128 m 1042 1215 l 1042 1302 l 1128 1302 l 1128 1215 l 1042 1215 m 694 1128 l 694 1302 l 868 1302 l 868 1389 l 955 1389 l 955 1215 l 781 1215 l 781 1128 l 694 1128 z "},"x":{"ha":1389,"x_min":174,"x_max":1215,"o":"m 174 87 l 174 260 l 260 260 l 260 174 l 347 174 l 347 87 l 174 87 m 347 174 l 347 260 l 434 260 l 434 174 l 347 174 m 260 260 l 260 347 l 347 347 l 347 260 l 260 260 m 434 260 l 434 347 l 521 347 l 521 260 l 434 260 m 347 347 l 347 434 l 434 434 l 434 347 l 347 347 m 521 347 l 521 434 l 608 434 l 608 347 l 521 347 m 434 434 l 434 521 l 521 521 l 521 434 l 434 434 m 608 434 l 608 521 l 694 521 l 694 434 l 608 434 m 521 521 l 521 608 l 608 608 l 608 521 l 521 521 m 694 521 l 694 608 l 781 608 l 781 521 l 694 521 m 608 608 l 608 694 l 694 694 l 694 608 l 608 608 m 781 608 l 781 694 l 868 694 l 868 608 l 781 608 m 955 608 l 955 694 l 1128 694 l 1128 608 l 955 608 m 868 694 l 868 781 l 955 781 l 955 694 l 868 694 m 694 694 l 694 781 l 608 781 l 608 868 l 868 868 l 868 781 l 781 781 l 781 694 l 694 694 m 1128 694 l 1128 868 l 1215 868 l 1215 694 l 1128 694 m 521 868 l 521 1042 l 608 1042 l 608 868 l 521 868 m 608 1042 l 608 1128 l 694 1128 l 694 1042 l 608 1042 m 694 1128 l 694 1215 l 781 1215 l 781 1128 l 694 1128 m 1042 868 l 1042 955 l 955 955 l 955 1215 l 1042 1215 l 1042 1042 l 1128 1042 l 1128 868 l 1042 868 m 781 1215 l 781 1302 l 955 1302 l 955 1215 l 781 1215 z "},"y":{"ha":1389,"x_min":174,"x_max":1215,"o":"m 521 174 l 521 260 l 608 260 l 608 347 l 694 347 l 694 260 l 868 260 l 868 174 l 521 174 m 260 347 l 260 434 l 347 434 l 347 347 l 260 347 m 347 260 l 347 347 l 434 347 l 434 434 l 521 434 l 521 260 l 347 260 m 694 347 l 694 434 l 781 434 l 781 347 l 694 347 m 868 260 l 868 434 l 955 434 l 955 347 l 1042 347 l 1042 260 l 868 260 m 1042 347 l 1042 434 l 1128 434 l 1128 347 l 1042 347 m 608 434 l 608 521 l 694 521 l 694 434 l 608 434 m 781 434 l 781 521 l 868 521 l 868 434 l 781 434 m 347 434 l 347 608 l 434 608 l 434 434 l 347 434 m 521 521 l 521 608 l 608 608 l 608 521 l 521 521 m 694 521 l 694 608 l 781 608 l 781 521 l 694 521 m 955 434 l 955 608 l 1042 608 l 1042 434 l 955 434 m 174 434 l 174 694 l 260 694 l 260 434 l 174 434 m 434 608 l 434 694 l 521 694 l 521 608 l 434 608 m 781 608 l 781 694 l 868 694 l 868 608 l 781 608 m 260 694 l 260 781 l 347 781 l 347 694 l 260 694 m 521 694 l 521 781 l 608 781 l 608 694 l 521 694 m 868 694 l 868 781 l 955 781 l 955 694 l 868 694 m 1128 434 l 1128 608 l 1042 608 l 1042 781 l 1128 781 l 1128 694 l 1215 694 l 1215 434 l 1128 434 m 347 781 l 347 868 l 434 868 l 434 781 l 347 781 m 608 781 l 608 868 l 781 868 l 781 781 l 608 781 m 434 868 l 434 955 l 521 955 l 521 868 l 434 868 m 781 868 l 781 955 l 868 955 l 868 868 l 781 868 m 868 955 l 868 1042 l 955 1042 l 955 955 l 868 955 m 521 955 l 521 1042 l 608 1042 l 608 1128 l 868 1128 l 868 1042 l 694 1042 l 694 955 l 521 955 m 868 1128 l 868 1215 l 955 1215 l 955 1128 l 868 1128 m 955 781 l 955 955 l 1042 955 l 1042 1215 l 1128 1215 l 1128 955 l 1215 955 l 1215 781 l 1128 781 l 1128 868 l 1042 868 l 1042 781 l 955 781 m 955 1215 l 955 1302 l 1042 1302 l 1042 1215 l 955 1215 z "},"z":{"ha":1389,"x_min":0,"x_max":1389,"o":"m 304 347 l 304 521 l 391 521 l 391 434 l 651 434 l 651 347 l 304 347 m 391 521 l 391 608 l 477 608 l 477 521 l 391 521 m 998 347 l 998 608 l 1085 608 l 1085 347 l 998 347 m 477 608 l 477 694 l 564 694 l 564 608 l 477 608 m 738 347 l 738 694 l 998 694 l 998 608 l 825 608 l 825 347 l 738 347 m 564 694 l 564 781 l 304 781 l 304 868 l 651 868 l 651 694 l 564 694 m 174 998 l 174 1042 l 347 1042 l 347 998 l 174 998 m 477 998 l 477 1042 l 608 1042 l 608 998 l 477 998 m 347 1042 l 347 1085 l 391 1085 l 391 1042 l 347 1042 m 217 1085 l 217 1128 l 347 1128 l 347 1085 l 217 1085 m 521 1085 l 521 1128 l 564 1128 l 564 1085 l 521 1085 m 347 1128 l 347 1172 l 391 1172 l 391 1128 l 347 1128 m 434 1042 l 434 1172 l 477 1172 l 477 1042 l 434 1042 m 608 1042 l 608 1172 l 651 1172 l 651 1042 l 608 1042 m 174 1172 l 174 1215 l 347 1215 l 347 1172 l 174 1172 m 477 1172 l 477 1215 l 608 1215 l 608 1172 l 477 1172 m 1302 87 l 1302 1302 l 87 1302 l 87 87 l 1302 87 m 0 0 l 0 1389 l 1389 1389 l 1389 0 l 0 0 z "}}}
